Coordinates
nRows=90
nColumns=3

# SIMM Motion File Header:
name Coordinates
datacolumns 3
datarows 90
otherdata 1
range 0.75000000000000000000 0.83899999999999997000
endheader
time	r_shoulder_elev	r_elbow_flex
      0.75000000000000000000	    -25.32670803089296600000	     80.73851171981864600000
      0.75100000000000000000	    -25.50103326017979200000	     80.89582202171908400000
      0.75200000000000000000	    -25.67417592753609400000	     81.04936047143256400000
      0.75300000000000000000	    -25.84695852538388300000	     81.20196481592684300000
      0.75400000000000000000	    -26.01722063667205700000	     81.34803042388661300000
      0.75500000000000000000	    -26.18748274796023500000	     81.49409603184638200000
      0.75600000000000001000	    -26.35619548459554200000	     81.63758384816435400000
      0.75700000000000001000	    -26.52397859643912900000	     81.77952498949726100000
      0.75800000000000001000	    -26.69147058396363900000	     81.92119329933142100000
      0.75900000000000001000	    -26.85692470125459500000	     82.06095178867441600000
      0.76000000000000001000	    -27.02237881854555500000	     82.20071027801742500000
      0.76100000000000001000	    -27.18538379856137900000	     82.33828013284355100000
      0.76200000000000001000	    -27.34803890182361000000	     82.47553732559583800000
      0.76300000000000001000	    -27.50929130383187600000	     82.61117116767725600000
      0.76400000000000001000	    -27.66820587041686600000	     82.74409942530724000000
      0.76500000000000001000	    -27.82712043700185200000	     82.87702768293721100000
      0.76600000000000001000	    -27.98222059769106500000	     83.00516993859533000000
      0.76700000000000002000	    -28.13677584325230500000	     83.13262847968603400000
      0.76800000000000002000	    -28.28971182584095300000	     83.25841790760578900000
      0.76900000000000002000	    -28.43994903680860600000	     83.38142548024062300000
      0.77000000000000002000	    -28.59018624777625900000	     83.50443305287545600000
      0.77100000000000002000	    -28.73687960749758500000	     83.62689123757584800000
      0.77200000000000002000	    -28.88357296721890700000	     83.74934942227625400000
      0.77300000000000002000	    -29.02874267415621600000	     83.87518908755315300000
      0.77400000000000002000	    -29.17299818942311900000	     84.00305764117594300000
      0.77500000000000002000	    -29.31705800614194100000	     84.13218074201678600000
      0.77600000000000002000	    -29.45974793302417900000	     84.27008567338387500000
      0.77700000000000002000	    -29.60243785990641600000	     84.40799060475096400000
      0.77800000000000002000	    -29.74431055908414100000	     84.55256333024749400000
      0.77900000000000003000	    -29.88569292163916200000	     84.70113673222167000000
      0.78000000000000003000	    -30.02686663491605400000	     84.85055245929730500000
      0.78100000000000003000	    -30.16657980324604800000	     85.00586446208306800000
      0.78200000000000003000	    -30.30629297157604200000	     85.16117646486881700000
      0.78300000000000003000	    -30.44372984030689700000	     85.31686931332720300000
      0.78400000000000003000	    -30.58084152338073700000	     85.47261656831024400000
      0.78500000000000003000	    -30.71656172640643600000	     85.62616033582727900000
      0.78600000000000003000	    -30.84996279601857000000	     85.77603162423427800000
      0.78700000000000003000	    -30.98336386563070000000	     85.92590291264129100000
      0.78800000000000003000	    -31.11296439312039300000	     86.06706820059480400000
      0.78900000000000003000	    -31.24202198602116100000	     86.20698977419780800000
      0.79000000000000004000	    -31.36950775806917600000	     86.34314978460827200000
      0.79100000000000004000	    -31.49437382869593400000	     86.47304052303113100000
      0.79200000000000004000	    -31.61877197191474000000	     86.60200253519126100000
      0.79300000000000004000	    -31.73989462327786300000	     86.72446346351227900000
      0.79400000000000004000	    -31.86101727464098600000	     86.84692439183329800000
      0.79500000000000004000	    -31.98003429413915600000	     86.96681352850428900000
      0.79600000000000004000	    -32.09778793451835800000	     87.08515959018528500000
      0.79700000000000004000	    -32.21515882977048800000	     87.20332746342333500000
      0.79800000000000004000	    -32.32985050913310200000	     87.32024801756082900000
      0.79900000000000004000	    -32.44454218849572400000	     87.43716857169832200000
      0.80000000000000004000	    -32.55730595965795300000	     87.55352318844227000000
      0.80100000000000005000	    -32.66891298589995800000	     87.66953824275009300000
      0.80200000000000005000	    -32.77912486176471400000	     87.78460286838185300000
      0.80300000000000005000	    -32.88701148700072000000	     87.89808344622017000000
      0.80400000000000005000	    -32.99489811223671900000	     88.01156402405850100000
      0.80500000000000005000	    -33.09872096001289800000	     88.12084906805947100000
      0.80600000000000005000	    -33.20196326815195700000	     88.22953475008368700000
      0.80700000000000005000	    -33.30329610947726600000	     88.33605317789162800000
      0.80800000000000005000	    -33.40144650611299000000	     88.43895951533916400000
      0.80900000000000005000	    -33.49959690274871300000	     88.54186585278670000000
      0.81000000000000005000	    -33.59359020207638500000	     88.64111326244905300000
      0.81100000000000005000	    -33.68698963036004600000	     88.73983796814211200000
      0.81200000000000006000	    -33.77783525657267900000	     88.83847071915631900000
      0.81300000000000006000	    -33.86714860154268100000	     88.93704829736320500000
      0.81400000000000006000	    -33.95602688136519700000	     89.03619156615840800000
      0.81500000000000006000	    -34.04185970515531100000	     89.13929466907181600000
      0.81600000000000006000	    -34.12769252894541700000	     89.24239777198522500000
      0.81700000000000006000	    -34.21164517477070200000	     89.34985661681304200000
      0.81800000000000006000	    -34.29446971381708700000	     89.45992890678951400000
      0.81900000000000006000	    -34.37693349069815700000	     89.57069550167932400000
      0.82000000000000006000	    -34.45687193242201800000	     89.68632223096257400000
      0.82100000000000006000	    -34.53681037414588000000	     89.80194896024583800000
      0.82200000000000006000	    -34.61378289309551800000	     89.91857222926940100000
      0.82300000000000006000	    -34.69033170879168900000	     90.03533786111302100000
      0.82400000000000007000	    -34.76528823309411100000	     90.15042710795130200000
      0.82500000000000007000	    -34.83759093840694700000	     90.26272237978068300000
      0.82600000000000007000	    -34.90989364371979100000	     90.37501765161005100000
      0.82700000000000007000	    -34.97808596980402700000	     90.47981197605001600000
      0.82800000000000007000	    -35.04569109885560600000	     90.58353473657720700000
      0.82900000000000007000	    -35.11164124845705500000	     90.68389523047538600000
      0.83000000000000007000	    -35.17483309897497200000	     90.77865194665858400000
      0.83099999999999996000	    -35.23755664598887400000	     90.87265055335822700000
      0.83199999999999996000	    -35.29700206847473300000	     90.96134239367303600000
      0.83299999999999996000	    -35.35644749096059100000	     91.05003423398784400000
      0.83399999999999996000	    -35.41403860560790700000	     91.13779067781635500000
      0.83499999999999996000	    -35.47051713555210700000	     91.22498588375309200000
      0.83599999999999997000	    -35.52671231557064100000	     91.31245382881986900000
      0.83699999999999997000	    -35.58092404610952300000	     91.40183094779682400000
      0.83799999999999997000	    -35.63513577664839700000	     91.49120806677378000000
      0.83899999999999997000	    -35.68811067765644700000	     91.58243117696729000000
